<?xml version="1.0" standalone="no"?>
<!DOCTYPE svg PUBLIC "-//W3C//DTD SVG 20010904//EN"
 "http://www.w3.org/TR/2001/REC-SVG-20010904/DTD/svg10.dtd">
<svg version="1.0" xmlns="http://www.w3.org/2000/svg"
 width="265.000000pt" height="265.000000pt" viewBox="0 0 265.000000 265.000000"
 preserveAspectRatio="xMidYMid meet">
<metadata>
Created by potrace 1.14, written by Peter Selinger 2001-2017
</metadata>
<g transform="translate(0.000000,265.000000) scale(0.100000,-0.100000)"
fill="#000000" stroke="none">
<path d="M30 1686 c0 -61 4 -107 10 -111 6 -4 10 -3 9 2 -5 27 3 64 16 77 8 8
15 19 15 24 0 20 60 35 150 37 52 1 100 1 105 -2 7 -2 10 -135 10 -383 l0
-379 -24 -25 c-14 -14 -35 -26 -48 -26 -13 0 -23 -4 -23 -8 0 -5 86 -8 190 -8
105 0 190 3 190 8 0 4 -11 8 -25 8 -14 0 -25 5 -25 11 0 5 -4 8 -8 5 -5 -3
-15 7 -23 22 -13 23 -15 86 -15 402 l1 375 90 1 c50 0 103 -3 119 -8 43 -11
76 -47 83 -90 10 -64 18 -32 18 73 l0 100 -35 -7 c-45 -9 -705 -9 -747 0 l-33
6 0 -104z"/>
<path d="M2169 1785 c-2 -2 -17 -5 -34 -8 -72 -13 -101 -21 -120 -34 -11 -7
-28 -13 -38 -13 -10 0 -16 -4 -13 -9 3 -5 -4 -11 -17 -15 -26 -6 -107 -79
-107 -96 0 -6 -4 -9 -8 -6 -4 2 -14 -10 -22 -27 -7 -18 -17 -34 -21 -37 -5 -3
-10 -15 -12 -25 -2 -11 -7 -27 -10 -35 -10 -23 -23 -122 -21 -155 1 -16 3 -46
4 -65 6 -79 79 -235 124 -262 6 -3 22 -16 36 -28 45 -40 156 -83 245 -96 60
-9 205 -11 205 -4 0 3 12 7 26 8 14 1 46 11 70 22 105 46 163 113 158 182 -1
24 -4 69 -5 101 -1 42 -5 57 -16 57 -8 0 -12 -4 -9 -8 3 -5 0 -26 -6 -48 -7
-21 -12 -41 -13 -44 0 -3 -4 -11 -8 -17 -5 -7 -5 -18 -2 -23 3 -5 3 -10 -2
-10 -4 0 -14 -12 -20 -27 -23 -51 -91 -114 -131 -119 -8 -2 -18 -7 -21 -11
-11 -16 -193 -8 -233 10 -96 43 -187 184 -183 285 0 17 -2 32 -6 32 -8 0 -4
151 4 185 3 11 8 34 12 50 11 43 54 125 65 125 6 0 10 6 10 13 0 6 17 24 38
38 36 26 112 62 112 54 0 -3 11 0 25 5 17 7 25 6 25 -1 0 -8 4 -8 14 0 7 6 20
9 27 7 8 -3 30 -7 49 -10 76 -11 168 -74 185 -125 3 -12 11 -21 16 -21 5 0 9
-8 9 -17 1 -19 28 -73 31 -60 5 23 4 33 -2 42 -4 6 -5 16 -1 22 4 6 6 42 4 81
-4 71 -13 85 -62 94 -8 2 -18 6 -21 10 -3 5 -17 9 -32 10 -15 1 -27 5 -27 8 0
7 -9 8 -151 14 -64 3 -118 3 -120 1z"/>
<path d="M924 1769 c-16 -7 -16 -8 6 -8 14 -1 38 -12 54 -24 l29 -24 1 -355
c1 -339 -5 -445 -24 -433 -4 3 -10 -2 -14 -10 -3 -8 -17 -15 -31 -15 -14 0
-25 -4 -25 -8 0 -10 366 -10 376 1 4 4 -5 7 -19 7 -17 0 -36 10 -49 26 -23 25
-23 27 -23 405 0 329 2 380 15 383 34 10 122 -4 152 -22 30 -19 78 -82 62 -82
-3 0 -2 -6 4 -13 16 -18 8 -136 -10 -172 -17 -32 -74 -87 -98 -94 -8 -3 -27
-5 -41 -5 -29 -1 -62 -26 -34 -26 8 0 15 -4 15 -10 0 -5 9 -10 19 -10 11 0 22
-4 25 -9 3 -5 41 -8 84 -7 56 1 88 8 117 23 43 23 105 82 109 104 2 8 9 28 16
44 17 40 14 135 -5 182 -32 77 -122 138 -218 148 -12 1 -22 3 -22 4 0 2 -15 3
-33 4 -17 1 -32 -2 -32 -7 0 -6 -5 -5 -11 1 -6 6 -23 8 -44 3 -18 -4 -39 -4
-46 1 -7 4 -20 4 -30 -1 -9 -5 -19 -7 -22 -4 -8 8 -118 10 -123 2 -3 -4 -16
-3 -29 2 -17 6 -25 6 -25 -1 0 -6 -6 -7 -12 -3 -17 11 -41 12 -64 3z"/>
</g>
</svg>
